<svg version="1.1" id="Layer_1" xmlns="http://www.w3.org/2000/svg" xmlns:xlink="http://www.w3.org/1999/xlink" x="0px" y="0px"
	 width="100%" viewBox="0 0 500 500" enable-background="new 0 0 500 500" xml:space="preserve">
<path fill="#292929" opacity="1.000000" stroke="none" 
	d="
M243.000000,501.000000 
	C162.000015,501.000000 81.500038,501.000000 1.000043,501.000000 
	C1.000029,334.333405 1.000029,167.666779 1.000014,1.000133 
	C167.666565,1.000088 334.333130,1.000088 500.999756,1.000044 
	C500.999847,167.666519 500.999847,334.333038 500.999939,500.999786 
	C415.166656,501.000000 329.333344,501.000000 243.000000,501.000000 
M386.979645,269.500000 
	C386.979645,287.276123 386.979645,305.052216 386.979645,322.669861 
	C391.448425,323.911133 390.882019,321.127197 390.882019,318.827393 
	C390.882233,294.353577 390.882202,269.879761 390.882263,245.405930 
	C390.882263,243.662720 390.882263,241.919495 390.882263,238.648666 
	C401.432831,240.202087 411.200348,240.980774 420.606415,243.254715 
	C426.980804,244.795761 430.574615,250.110672 431.139130,256.996155 
	C431.732697,264.236237 429.592041,270.113434 423.058289,273.931183 
	C420.667938,275.327911 418.297180,276.758240 415.917511,278.173248 
	C415.956116,278.679962 415.994720,279.186676 416.033356,279.693390 
	C417.277222,279.880798 418.631653,280.466675 419.738373,280.159729 
	C421.294891,279.727997 422.663239,278.625671 424.119629,277.823944 
	C432.519348,273.200195 435.883331,265.970093 435.007538,256.610870 
	C434.168213,247.641739 428.878265,242.154251 420.814423,239.045273 
	C418.080444,237.991196 415.183350,237.360046 412.041473,236.442383 
	C416.580231,228.413528 421.068512,220.473907 425.703156,212.275421 
	C414.904877,212.275421 405.033661,212.275421 394.550262,212.275421 
	C399.177582,220.406204 403.517303,228.031647 408.239868,236.329834 
	C400.558197,236.329834 393.958557,236.329834 386.979645,236.329834 
	C386.979645,247.256989 386.979645,257.878510 386.979645,269.500000 
M291.197601,162.697678 
	C297.479645,156.452377 303.761688,150.207077 310.622559,143.386337 
	C291.722443,143.386337 274.009369,143.386337 256.311493,143.386337 
	C256.311493,172.407578 256.311493,201.119217 256.311493,229.840591 
	C273.600494,229.840591 290.550842,229.840591 307.507751,229.840591 
	C308.748749,226.538620 307.089478,226.068512 304.470184,226.092682 
	C296.308563,226.167999 288.145874,226.119629 279.983582,226.119431 
	C273.384613,226.119263 266.785614,226.119385 260.183350,226.119385 
	C260.183350,199.441513 260.183350,173.385986 260.183350,147.410095 
	C273.800079,147.410095 287.119904,147.410095 300.439728,147.410095 
	C300.750885,147.859222 301.062042,148.308334 301.373199,148.757462 
	C289.438080,160.881073 277.502960,173.004684 265.893250,184.797729 
	C275.930115,184.797729 286.889313,184.863754 297.844940,184.696289 
	C298.948364,184.679413 300.030182,183.250107 301.122040,182.476303 
	C300.871490,181.941666 300.620972,181.407043 300.370453,180.872406 
	C291.661133,180.872406 282.951843,180.872406 273.337708,180.872406 
	C279.607361,174.487457 285.151367,168.841492 291.197601,162.697678 
M118.033669,272.488373 
	C127.137924,259.149414 122.209915,243.884003 107.015388,238.671219 
	C96.388321,235.025406 85.424019,236.148636 74.484772,236.206421 
	C74.484772,265.429413 74.484772,294.137878 74.484772,322.908875 
	C83.190842,322.908875 91.553551,323.377441 99.830658,322.737976 
	C105.025970,322.336548 110.420609,320.979431 115.143456,318.793060 
	C123.032326,315.141113 126.889595,308.343323 127.084625,299.531372 
	C127.282127,290.607941 123.942039,283.677856 116.041389,279.194061 
	C114.997581,278.601685 113.912209,278.082489 112.717072,277.462494 
	C114.627853,275.714081 116.093002,274.373444 118.033669,272.488373 
M233.037643,291.273407 
	C231.700775,287.547638 230.363892,283.821869 228.962967,279.917664 
	C230.130890,279.188721 231.060150,278.531799 232.055923,277.999268 
	C240.711014,273.370758 244.174240,266.061859 243.217560,256.462524 
	C242.273895,246.993652 236.527298,241.560181 227.979477,238.660751 
	C217.348938,235.054840 206.399338,236.146927 195.112579,236.208984 
	C195.112579,264.693634 195.085800,292.649048 195.225159,320.603638 
	C195.229965,321.571167 196.894974,322.530457 197.786179,323.493591 
	C198.220917,323.198669 198.655655,322.903778 199.090393,322.608856 
	C199.090393,295.200806 199.090393,267.792755 199.090393,240.013031 
	C209.277847,240.139801 219.106491,239.144913 228.512863,242.918884 
	C235.148865,245.581329 238.999527,250.352432 239.448105,257.613281 
	C239.883896,264.667358 237.562088,270.349152 231.185394,273.987793 
	C228.893509,275.295563 226.637131,276.665558 224.130737,278.145142 
	C229.047699,291.780731 233.891663,305.213898 238.904846,319.116333 
	C228.138870,319.116333 218.316696,319.086090 208.494873,319.132507 
	C204.988312,319.149109 204.988708,319.233856 205.651199,322.779938 
	C218.417648,322.779938 231.168716,322.779938 244.488327,322.779938 
	C240.649155,312.260956 236.956390,302.143127 233.037643,291.273407 
M319.559174,317.274445 
	C318.463257,317.887543 317.372528,319.022980 316.270660,319.033875 
	C303.607056,319.159332 290.941193,319.180206 278.277344,319.067413 
	C275.134552,319.039459 273.985535,319.877136 275.193848,322.748718 
	C292.083893,322.748718 308.659973,322.748718 325.709229,322.748718 
	C315.232544,293.969788 304.903534,265.596497 294.080139,235.865173 
	C283.210510,265.761108 272.903625,294.109192 262.596710,322.457367 
	C266.703094,324.250366 267.141815,321.398712 267.978851,319.096375 
	C275.987061,297.068848 283.992126,275.040192 292.015106,253.018051 
	C292.553650,251.539749 293.230072,250.111649 294.259003,247.672607 
	C302.835602,271.332733 311.027374,293.931213 319.559174,317.274445 
M164.181290,263.467041 
	C170.878189,281.838562 177.575089,300.210052 184.466125,319.114197 
	C182.073883,319.114197 180.429108,319.114166 178.784348,319.114197 
	C166.789841,319.114288 154.795288,319.095764 142.800858,319.126038 
	C139.286560,319.134888 139.286728,319.198456 139.480911,322.721436 
	C156.174805,322.721436 172.868713,322.721436 189.948303,322.721436 
	C179.461929,293.907654 169.121155,265.493958 158.336472,235.860504 
	C147.522415,265.598602 137.172028,294.061646 126.821632,322.524658 
	C127.368515,322.909546 127.915390,323.294434 128.462265,323.679321 
	C129.661346,322.285767 131.383163,321.085449 131.980560,319.469482 
	C140.105377,297.491241 148.070557,275.454010 156.089844,253.436661 
	C156.686874,251.797531 157.396591,250.199432 158.424850,247.669708 
	C160.527267,253.377075 162.247162,258.046021 164.181290,263.467041 
M334.894897,301.499878 
	C334.894897,281.092590 334.894897,260.685303 334.894897,238.694748 
	C345.346313,240.215790 355.100800,240.988083 364.505310,243.229187 
	C370.892761,244.751266 374.526031,250.028687 375.117889,256.911469 
	C375.739594,264.141815 373.636292,270.043365 367.111176,273.888794 
	C364.717529,275.299469 362.343201,276.742920 359.960052,278.171387 
	C359.968445,278.646637 359.976868,279.121887 359.985260,279.597137 
	C361.219391,279.838531 362.670410,280.627411 363.654388,280.237579 
	C374.829742,275.809998 379.837250,268.030609 379.034851,256.716431 
	C378.367126,247.300644 372.000671,239.992889 360.614563,237.941238 
	C351.079315,236.223083 341.240967,236.187195 331.215912,235.380585 
	C331.215912,265.261108 331.215912,293.985962 331.215912,322.710815 
	C331.637695,322.966919 332.059448,323.223022 332.481232,323.479095 
	C333.285248,322.314362 334.734131,321.176544 334.783997,319.980377 
	C335.026459,314.162079 334.894379,308.328156 334.894897,301.499878 
M199.108078,146.844406 
	C199.108078,174.424118 199.108078,202.003830 199.108078,229.805038 
	C216.686172,229.805038 233.753998,229.805038 250.771408,229.805038 
	C251.883499,226.337387 250.023315,226.070160 247.485245,226.088409 
	C237.498535,226.160263 227.511017,226.117447 217.523788,226.117264 
	C212.773163,226.117188 208.022537,226.117264 202.873596,226.117264 
	C202.873596,198.054520 202.873596,170.653427 202.873596,143.252335 
	C202.375443,143.015381 201.877304,142.778427 201.379150,142.541473 
	C200.622849,143.667374 199.866562,144.793274 199.108078,146.844406 
M253.986252,256.120056 
	C251.475922,262.803619 251.475922,262.803619 254.697845,264.347229 
	C259.694275,255.595596 261.270477,246.201309 260.917175,236.391327 
	C257.885254,236.391327 255.485550,236.391327 252.160019,236.391327 
	C252.888916,239.078918 253.377502,241.298233 254.111938,243.432968 
	C254.557220,244.727203 256.009155,245.942459 255.913010,247.102371 
	C255.682526,249.883316 254.804901,252.610611 253.986252,256.120056 
z"/>
<path fill="#E8E6DE" opacity="1.000000" stroke="none" 
	d="
M386.979645,269.000000 
	C386.979645,257.878510 386.979645,247.256989 386.979645,236.329834 
	C393.958557,236.329834 400.558197,236.329834 408.239868,236.329834 
	C403.517303,228.031647 399.177582,220.406204 394.550262,212.275421 
	C405.033661,212.275421 414.904877,212.275421 425.703156,212.275421 
	C421.068512,220.473907 416.580231,228.413528 412.041473,236.442383 
	C415.183350,237.360046 418.080444,237.991196 420.814423,239.045273 
	C428.878265,242.154251 434.168213,247.641739 435.007538,256.610870 
	C435.883331,265.970093 432.519348,273.200195 424.119629,277.823944 
	C422.663239,278.625671 421.294891,279.727997 419.738373,280.159729 
	C418.631653,280.466675 417.277222,279.880798 416.033356,279.693390 
	C415.994720,279.186676 415.956116,278.679962 415.917511,278.173248 
	C418.297180,276.758240 420.667938,275.327911 423.058289,273.931183 
	C429.592041,270.113434 431.732697,264.236237 431.139130,256.996155 
	C430.574615,250.110672 426.980804,244.795761 420.606415,243.254715 
	C411.200348,240.980774 401.432831,240.202087 390.882263,238.648666 
	C390.882263,241.919495 390.882263,243.662720 390.882263,245.405930 
	C390.882202,269.879761 390.882233,294.353577 390.882019,318.827393 
	C390.882019,321.127197 391.448425,323.911133 386.979645,322.669861 
	C386.979645,305.052216 386.979645,287.276123 386.979645,269.000000 
z"/>
<path fill="#E6E4DC" opacity="1.000000" stroke="none" 
	d="
M290.946503,162.946594 
	C285.151367,168.841492 279.607361,174.487457 273.337708,180.872406 
	C282.951843,180.872406 291.661133,180.872406 300.370453,180.872406 
	C300.620972,181.407043 300.871490,181.941666 301.122040,182.476303 
	C300.030182,183.250107 298.948364,184.679413 297.844940,184.696289 
	C286.889313,184.863754 275.930115,184.797729 265.893250,184.797729 
	C277.502960,173.004684 289.438080,160.881073 301.373199,148.757462 
	C301.062042,148.308334 300.750885,147.859222 300.439728,147.410095 
	C287.119904,147.410095 273.800079,147.410095 260.183350,147.410095 
	C260.183350,173.385986 260.183350,199.441513 260.183350,226.119385 
	C266.785614,226.119385 273.384613,226.119263 279.983582,226.119431 
	C288.145874,226.119629 296.308563,226.167999 304.470184,226.092682 
	C307.089478,226.068512 308.748749,226.538620 307.507751,229.840591 
	C290.550842,229.840591 273.600494,229.840591 256.311493,229.840591 
	C256.311493,201.119217 256.311493,172.407578 256.311493,143.386337 
	C274.009369,143.386337 291.722443,143.386337 310.622559,143.386337 
	C303.761688,150.207077 297.479645,156.452377 290.946503,162.946594 
z"/>
<path fill="#E4E2DB" opacity="1.000000" stroke="none" 
	d="
M117.795914,272.760590 
	C116.093002,274.373444 114.627853,275.714081 112.717072,277.462494 
	C113.912209,278.082489 114.997581,278.601685 116.041389,279.194061 
	C123.942039,283.677856 127.282127,290.607941 127.084625,299.531372 
	C126.889595,308.343323 123.032326,315.141113 115.143456,318.793060 
	C110.420609,320.979431 105.025970,322.336548 99.830658,322.737976 
	C91.553551,323.377441 83.190842,322.908875 74.484772,322.908875 
	C74.484772,294.137878 74.484772,265.429413 74.484772,236.206421 
	C85.424019,236.148636 96.388321,235.025406 107.015388,238.671219 
	C122.209915,243.884003 127.137924,259.149414 117.795914,272.760590 
M111.160957,281.159241 
	C108.787674,280.235107 106.414398,279.310944 103.318565,278.105469 
	C105.599068,276.731262 107.114456,275.794464 108.651993,274.895538 
	C116.604073,270.246368 119.351784,264.914368 118.310181,256.437042 
	C117.293396,248.161682 112.067924,243.453613 104.506744,242.058243 
	C95.968262,240.482513 87.200325,240.150146 78.393723,239.263123 
	C78.393723,266.648895 78.393723,292.814484 78.393723,320.005585 
	C88.892876,319.020081 99.044106,318.673340 108.954773,316.946259 
	C116.961510,315.550903 122.180145,310.164337 123.027252,301.593842 
	C124.009819,291.652863 120.797516,286.007996 111.160957,281.159241 
z"/>
<path fill="#E4E3DB" opacity="1.000000" stroke="none" 
	d="
M233.150635,291.649353 
	C236.956390,302.143127 240.649155,312.260956 244.488327,322.779938 
	C231.168716,322.779938 218.417648,322.779938 205.651199,322.779938 
	C204.988708,319.233856 204.988312,319.149109 208.494873,319.132507 
	C218.316696,319.086090 228.138870,319.116333 238.904846,319.116333 
	C233.891663,305.213898 229.047699,291.780731 224.130737,278.145142 
	C226.637131,276.665558 228.893509,275.295563 231.185394,273.987793 
	C237.562088,270.349152 239.883896,264.667358 239.448105,257.613281 
	C238.999527,250.352432 235.148865,245.581329 228.512863,242.918884 
	C219.106491,239.144913 209.277847,240.139801 199.090393,240.013031 
	C199.090393,267.792755 199.090393,295.200806 199.090393,322.608856 
	C198.655655,322.903778 198.220917,323.198669 197.786179,323.493591 
	C196.894974,322.530457 195.229965,321.571167 195.225159,320.603638 
	C195.085800,292.649048 195.112579,264.693634 195.112579,236.208984 
	C206.399338,236.146927 217.348938,235.054840 227.979477,238.660751 
	C236.527298,241.560181 242.273895,246.993652 243.217560,256.462524 
	C244.174240,266.061859 240.711014,273.370758 232.055923,277.999268 
	C231.060150,278.531799 230.130890,279.188721 228.962967,279.917664 
	C230.363892,283.821869 231.700775,287.547638 233.150635,291.649353 
z"/>
<path fill="#E4E2DB" opacity="1.000000" stroke="none" 
	d="
M319.389160,316.902100 
	C311.027374,293.931213 302.835602,271.332733 294.259003,247.672607 
	C293.230072,250.111649 292.553650,251.539749 292.015106,253.018051 
	C283.992126,275.040192 275.987061,297.068848 267.978851,319.096375 
	C267.141815,321.398712 266.703094,324.250366 262.596710,322.457367 
	C272.903625,294.109192 283.210510,265.761108 294.080139,235.865173 
	C304.903534,265.596497 315.232544,293.969788 325.709229,322.748718 
	C308.659973,322.748718 292.083893,322.748718 275.193848,322.748718 
	C273.985535,319.877136 275.134552,319.039459 278.277344,319.067413 
	C290.941193,319.180206 303.607056,319.159332 316.270660,319.033875 
	C317.372528,319.022980 318.463257,317.887543 319.389160,316.902100 
z"/>
<path fill="#E4E2DB" opacity="1.000000" stroke="none" 
	d="
M164.074188,263.091003 
	C162.247162,258.046021 160.527267,253.377075 158.424850,247.669708 
	C157.396591,250.199432 156.686874,251.797531 156.089844,253.436661 
	C148.070557,275.454010 140.105377,297.491241 131.980560,319.469482 
	C131.383163,321.085449 129.661346,322.285767 128.462265,323.679321 
	C127.915390,323.294434 127.368515,322.909546 126.821632,322.524658 
	C137.172028,294.061646 147.522415,265.598602 158.336472,235.860504 
	C169.121155,265.493958 179.461929,293.907654 189.948303,322.721436 
	C172.868713,322.721436 156.174805,322.721436 139.479965,322.720734 
	C139.286728,319.198456 139.286560,319.134888 142.800858,319.126038 
	C154.795288,319.095764 166.789841,319.114288 178.784348,319.114197 
	C180.429108,319.114166 182.073883,319.114197 184.466125,319.114197 
	C177.575089,300.210052 170.878189,281.838562 164.074188,263.091003 
z"/>
<path fill="#E4E2DB" opacity="1.000000" stroke="none" 
	d="
M334.894897,301.999817 
	C334.894379,308.328156 335.026459,314.162079 334.783997,319.980377 
	C334.734131,321.176544 333.285248,322.314362 332.481232,323.479095 
	C332.059448,323.223022 331.637695,322.966919 331.215912,322.710815 
	C331.215912,293.985962 331.215912,265.261108 331.215912,235.380585 
	C341.240967,236.187195 351.079315,236.223083 360.614563,237.941238 
	C372.000671,239.992889 378.367126,247.300644 379.034851,256.716431 
	C379.837250,268.030609 374.829742,275.809998 363.654388,280.237579 
	C362.670410,280.627411 361.219391,279.838531 359.985260,279.597137 
	C359.976868,279.121887 359.968445,278.646637 359.960052,278.171387 
	C362.343201,276.742920 364.717529,275.299469 367.111176,273.888794 
	C373.636292,270.043365 375.739594,264.141815 375.117889,256.911469 
	C374.526031,250.028687 370.892761,244.751266 364.505310,243.229187 
	C355.100800,240.988083 345.346313,240.215790 334.894897,238.694748 
	C334.894897,260.685303 334.894897,281.092590 334.894897,301.999817 
z"/>
<path fill="#E5E3DC" opacity="1.000000" stroke="none" 
	d="
M199.109161,146.381790 
	C199.866562,144.793274 200.622849,143.667374 201.379150,142.541473 
	C201.877304,142.778427 202.375443,143.015381 202.873596,143.252335 
	C202.873596,170.653427 202.873596,198.054520 202.873596,226.117264 
	C208.022537,226.117264 212.773163,226.117188 217.523788,226.117264 
	C227.511017,226.117447 237.498535,226.160263 247.485245,226.088409 
	C250.023315,226.070160 251.883499,226.337387 250.771408,229.805038 
	C233.753998,229.805038 216.686172,229.805038 199.108078,229.805038 
	C199.108078,202.003830 199.108078,174.424118 199.109161,146.381790 
z"/>
<path fill="#E5E3DB" opacity="1.000000" stroke="none" 
	d="
M254.087357,255.739807 
	C254.804901,252.610611 255.682526,249.883316 255.913010,247.102371 
	C256.009155,245.942459 254.557220,244.727203 254.111938,243.432968 
	C253.377502,241.298233 252.888916,239.078918 252.160019,236.391327 
	C255.485550,236.391327 257.885254,236.391327 260.917175,236.391327 
	C261.270477,246.201309 259.694275,255.595596 254.697845,264.347229 
	C251.475922,262.803619 251.475922,262.803619 254.087357,255.739807 
z"/>
<path fill="#2A2A2A" opacity="1.000000" stroke="none" 
	d="
M111.499817,281.317505 
	C120.797516,286.007996 124.009819,291.652863 123.027252,301.593842 
	C122.180145,310.164337 116.961510,315.550903 108.954773,316.946259 
	C99.044106,318.673340 88.892876,319.020081 78.393723,320.005585 
	C78.393723,292.814484 78.393723,266.648895 78.393723,239.263123 
	C87.200325,240.150146 95.968262,240.482513 104.506744,242.058243 
	C112.067924,243.453613 117.293396,248.161682 118.310181,256.437042 
	C119.351784,264.914368 116.604073,270.246368 108.651993,274.895538 
	C107.114456,275.794464 105.599068,276.731262 103.318565,278.105469 
	C106.414398,279.310944 108.787674,280.235107 111.499817,281.317505 
z"/>
</svg>